HIERARCHY
ROOT Hips
{
 OFFSET 0.000000 0.000000 0.000000
 CHANNELS 6 Xposition Yposition Zposition Yrotation Xrotation Zrotation
 JOINT Chest
 {
  OFFSET 0.000000 9.303000 0.001900
  CHANNELS 3 Yrotation Xrotation Zrotation
  JOINT Chest2
  {
   OFFSET 0.000000 9.301100 -0.003900
   CHANNELS 3 Yrotation Xrotation Zrotation
   JOINT Chest3
   {
    OFFSET 0.000000 9.262800 0.000000
    CHANNELS 3 Yrotation Xrotation Zrotation
    JOINT Chest4
    {
     OFFSET 0.000000 9.253300 0.000000
     CHANNELS 3 Yrotation Xrotation Zrotation
     JOINT Neck
     {
      OFFSET 0.000000 14.010300 0.000000
      CHANNELS 3 Yrotation Xrotation Zrotation
      JOINT Head
      {
       OFFSET 0.000000 8.657600 -0.008300
       CHANNELS 3 Yrotation Xrotation Zrotation
       End Site
       {
        OFFSET 0.000000 16.540200 -0.004400
       }
      }
     }
     JOINT RightCollar
     {
      OFFSET -2.834100 9.267700 0.000000
      CHANNELS 3 Yrotation Xrotation Zrotation
      JOINT RightShoulder
      {
       OFFSET -13.135200 0.000000 0.000000
       CHANNELS 3 Yrotation Xrotation Zrotation
       JOINT RightElbow
       {
        OFFSET 0.000000 -28.893500 0.000000
        CHANNELS 3 Yrotation Xrotation Zrotation
        JOINT RightWrist
        {
         OFFSET 0.000000 -23.344000 0.000000
         CHANNELS 3 Yrotation Xrotation Zrotation
         End Site
         {
          OFFSET 0.000000 -17.223000 0.000000
         }
        }
       }
      }
     }
     JOINT LeftCollar
     {
      OFFSET 2.834100 9.267700 0.000000
      CHANNELS 3 Yrotation Xrotation Zrotation
      JOINT LeftShoulder
      {
       OFFSET 13.135200 0.000000 0.000000
       CHANNELS 3 Yrotation Xrotation Zrotation
       JOINT LeftElbow
       {
        OFFSET 0.000000 -28.893500 0.000000
        CHANNELS 3 Yrotation Xrotation Zrotation
        JOINT LeftWrist
        {
         OFFSET 0.000000 -23.344000 0.000000
         CHANNELS 3 Yrotation Xrotation Zrotation
         End Site
         {
          OFFSET 0.000000 -17.223000 0.000000
         }
        }
       }
      }
     }
    }
   }
  }
 }
 JOINT RightHip
 {
  OFFSET -7.547200 -0.009500 -0.001000
  CHANNELS 3 Yrotation Xrotation Zrotation
  JOINT RightKnee
  {
   OFFSET 0.000000 -39.762800 0.000900
   CHANNELS 3 Yrotation Xrotation Zrotation
   JOINT RightAnkle
   {
    OFFSET 0.000000 -38.588200 0.001600
    CHANNELS 3 Yrotation Xrotation Zrotation
    JOINT RightToe
    {
     OFFSET 0.000000 -4.693300 10.419700
     CHANNELS 3 Yrotation Xrotation Zrotation
     End Site
     {
      OFFSET 0.000000 -1.379900 5.669300
     }
    }
   }
  }
 }
 JOINT LeftHip
 {
  OFFSET 7.547200 -0.009500 -0.001000
  CHANNELS 3 Yrotation Xrotation Zrotation
  JOINT LeftKnee
  {
   OFFSET 0.000000 -39.762800 0.000900
   CHANNELS 3 Yrotation Xrotation Zrotation
   JOINT LeftAnkle
   {
    OFFSET 0.000000 -38.588200 0.001600
    CHANNELS 3 Yrotation Xrotation Zrotation
    JOINT LeftToe
    {
     OFFSET 0.000000 -4.693300 10.419700
     CHANNELS 3 Yrotation Xrotation Zrotation
     End Site
     {
      OFFSET 0.000000 -1.379900 5.669300
     }
    }
   }
  }
 }
}
MOTION
Frames: 8
Frame Time: 0.008333
0.000000 82.880600 0.000000 0.000000 -5.767877 0.000000 0.000000 11.653817 0.000000 0.000000 -5.885947 0.000000 0.000000 -0.000000 0.000000 0.000000 -0.000000 0.000000 0.000000 12.528835 0.000000 0.000000 0.711642 0.000000 0.000000 -0.000000 0.000000 0.000000 0.000000 -90.000000 0.000000 -2.309062 0.000000 0.000000 2.309062 0.000000 0.000000 -0.000000 0.000000 0.000000 -0.000000 90.000000 0.000000 -2.309062 0.000000 0.000000 2.309062 0.000000 0.000000 8.520406 0.000000 0.000000 1.905762 0.000000 -0.000000 -4.658285 0.000000 0.000000 -0.000000 0.000000 0.000000 8.520406 0.000000 0.000000 1.905762 0.000000 -0.000000 -4.658285 0.000000 0.000000 -0.000000 0.000000
-8.800623 45.841080 27.808539 164.748234 -13.504231 0.499035 2.032995 7.971535 -0.244047 0.103712 0.388370 -0.003692 0.176420 0.680428 -0.004810 1.946550 7.480038 0.062688 -0.815690 22.054187 -0.113117 -0.842566 -2.175848 0.064563 0.664432 1.602340 -3.233901 -4.277660 -7.042378 -0.298122 -44.536349 -80.227317 62.589492 -9.389642 -5.293969 -28.053021 -8.578919 2.009403 -2.483172 19.269465 -7.510373 7.049993 48.321141 -67.884225 -68.235512 8.967376 -5.949668 15.599573 -19.598772 -74.957601 14.116484 -90.702152 84.250841 -93.762607 -9.147483 -7.156051 -0.790720 0.080368 -0.288801 0.025845 4.955238 -74.110147 11.647974 82.956314 78.293289 80.347251 -12.911840 -7.050193 3.950695 0.083195 0.374820 0.038567
-8.800402 45.841615 27.808486 164.748785 -13.508422 0.494563 2.030408 7.977154 -0.239265 0.101088 0.389959 -0.003096 0.176305 0.680645 -0.004991 1.940028 7.484741 0.057882 -0.807553 22.049035 -0.111344 -0.837458 -2.179459 0.063743 0.673164 1.595009 -3.234432 -4.290522 -7.050698 -0.305795 -44.481955 -80.221783 62.546980 -9.393715 -5.293513 -28.051063 -8.570104 1.996817 -2.477913 19.278778 -7.504282 7.046869 48.270912 -67.880072 -68.207849 8.964512 -5.954075 15.599322 -19.611930 -74.950764 14.125094 -90.705381 84.248901 -93.761770 -9.139594 -7.158563 -0.786757 0.073298 -0.288343 0.018834 4.951896 -74.106749 11.652076 82.952173 78.292025 80.346553 -12.909789 -7.053024 3.950894 0.077768 0.376690 0.038089
-8.800801 45.841938 27.809469 164.749811 -13.505390 0.491058 2.027501 7.975100 -0.239998 0.095389 0.392836 -0.006068 0.176014 0.681589 -0.004767 1.940772 7.487192 0.062864 -0.807106 22.047094 -0.110797 -0.829826 -2.185453 0.060615 0.677679 1.588628 -3.236416 -4.302811 -7.054670 -0.315115 -44.451615 -80.221021 62.520931 -9.399371 -5.290690 -28.043469 -8.564557 1.989302 -2.477125 19.278579 -7.501165 7.041366 48.227019 -67.879051 -68.179295 8.965732 -5.958232 15.603983 -19.631786 -74.951230 14.140872 -90.683574 84.244582 -93.740024 -9.119961 -7.157267 -0.786649 0.050465 -0.288735 0.017577 4.957420 -74.109842 11.646839 82.931687 78.291563 80.329175 -12.908037 -7.054811 3.953117 0.087599 0.380290 0.037347
-8.801440 45.842152 27.810929 164.752787 -13.498570 0.486995 2.020002 7.969935 -0.241010 0.097415 0.392607 -0.003907 0.171477 0.686049 -0.005204 1.935880 7.493678 0.064495 -0.800331 22.038494 -0.112063 -0.834305 -2.185945 0.063465 0.687761 1.579092 -3.248244 -4.306703 -7.058253 -0.323435 -44.422087 -80.218018 62.481951 -9.387627 -5.275630 -28.057436 -8.556546 1.977337 -2.478298 19.247884 -7.494589 7.047106 48.241755 -67.875603 -68.175314 8.972649 -5.954681 15.605236 -19.658154 -74.956554 14.160774 -90.681367 84.245520 -93.740953 -9.088349 -7.153897 -0.786821 0.097083 -0.289378 0.024395 4.953815 -74.117366 11.649610 82.920703 78.286152 80.312059 -12.904717 -7.053262 3.965774 0.079700 0.381118 0.032210
-8.801651 45.842694 27.811321 164.753106 -13.497696 0.482322 2.013461 7.972397 -0.239357 0.100765 0.391143 -0.002843 0.170552 0.687917 -0.004824 1.928768 7.501708 0.064873 -0.795209 22.031602 -0.112875 -0.850640 -2.174711 0.067956 0.697761 1.568077 -3.256253 -4.307378 -7.059251 -0.319843 -44.223125 -80.223228 62.260721 -9.406933 -5.292419 -28.033028 -8.558851 1.969199 -2.485135 19.256034 -7.500458 7.052998 48.239336 -67.873360 -68.173883 8.985696 -5.937238 15.595883 -19.675783 -74.955455 14.174587 -90.687019 84.248924 -93.749372 -9.073041 -7.151497 -0.778724 0.100467 -0.289574 0.026932 4.946728 -74.119304 11.657656 82.909925 78.288617 80.303473 -12.904883 -7.053341 3.965702 0.077801 0.379539 0.033694
-8.801904 45.843354 27.811641 164.749082 -13.495154 0.478954 2.008376 7.978134 -0.237055 0.100426 0.391841 -0.002865 0.175302 0.683934 -0.004552 1.929698 7.501005 0.064761 -0.805298 22.040501 -0.113355 -0.843386 -2.183659 0.065034 0.706249 1.564283 -3.261744 -4.315238 -7.060187 -0.326979 -44.194517 -80.216146 62.230342 -9.407640 -5.296604 -28.032804 -8.556797 1.964698 -2.486281 19.234763 -7.496477 7.060308 48.232163 -67.860059 -68.167769 8.985518 -5.946124 15.606764 -19.695035 -74.949243 14.197365 -90.607931 84.250013 -93.671748 -9.102992 -7.160544 -0.772308 0.089685 -0.279627 0.024859 4.948840 -74.123602 11.660820 82.902391 78.291604 80.300771 -12.905822 -7.051196 3.963269 0.079055 0.377714 0.035344
-8.802262 45.844507 27.810873 164.750048 -13.496573 0.477051 1.994068 7.992728 -0.236958 0.100298 0.392917 -0.002591 0.174939 0.685493 -0.004157 1.924489 7.510442 0.069401 -0.805120 22.033391 -0.117931 -0.835611 -2.197084 0.057673 0.745601 1.540074 -3.272367 -4.327882 -7.064894 -0.350429 -44.258842 -80.195923 62.286622 -9.391375 -5.291296 -28.049866 -8.551145 1.939235 -2.504062 19.201733 -7.493604 7.072215 48.184208 -67.819741 -68.129004 8.959891 -5.987965 15.639342 -19.703431 -74.944239 14.205293 -90.593941 84.250850 -93.656237 -9.142584 -7.165215 -0.771888 0.050809 -0.278071 0.025445 4.957060 -74.123307 11.651932 82.899693 78.292012 80.303179 -12.906509 -7.050151 3.961556 0.079328 0.375625 0.036463
